<svg xmlns="http://www.w3.org/2000/svg" width="38" height="38" viewBox="0 0 38 38">
  <g id="Group_439" data-name="Group 439" transform="translate(-1262 -4329)">
    <g id="parents_2_" data-name="parents (2)" transform="translate(1264.535 4330.543)">
      <path id="Path_676" data-name="Path 676" d="M31.531,140.969a2.083,2.083,0,0,0-2.093-2.083l-6.6.018a2.083,2.083,0,0,0-2.067,2.083v1.683h10.76Z" transform="translate(-19.475 -132.259)"/>
      <path id="Path_677" data-name="Path 677" d="M59.356,230.92v-1.361H50.447v1.361a4.455,4.455,0,0,0,4.454,4.455h0A4.455,4.455,0,0,0,59.356,230.92Z" transform="translate(-47.3 -217.276)"/>
      <path id="Path_679" data-name="Path 679" d="M298.729,231.574a4.462,4.462,0,0,0,4.462-4.462v-.883h-2.614a2.772,2.772,0,0,1-1.848-.7,2.772,2.772,0,0,1-1.848.7h-2.614v.883A4.462,4.462,0,0,0,298.729,231.574Z" transform="translate(-275.913 -213.495)"/>
      <path id="Path_680" data-name="Path 680" d="M303.191,122.957h-4.267a4.656,4.656,0,0,0-4.656,4.656v.574h2.614a.914.914,0,0,0,.913-.913h1.871a.914.914,0,0,0,.913.913h4.485v2.754a6.3,6.3,0,0,1-.624,2.741,5,5,0,0,1,2.677,1.721h.733v-7.789A4.656,4.656,0,0,0,303.191,122.957Z" transform="translate(-275.913 -117.323)"/>
      <path id="Path_681" data-name="Path 681" d="M7.6,324.682a6.306,6.306,0,0,1-4.487-1.871A3.118,3.118,0,0,0,0,325.929v8.681H14.267V323.7a3.108,3.108,0,0,0-2.179-.892A6.306,6.306,0,0,1,7.6,324.682Z" transform="translate(0 -304.712)"/>
      <path id="Path_682" data-name="Path 682" d="M269.911,322.5h0a6.322,6.322,0,0,1-8.979,0h-.005a3.108,3.108,0,0,0-2.183.892v10.927H273.03v-8.7A3.118,3.118,0,0,0,269.911,322.5Z" transform="translate(-242.601 -304.423)"/>
    </g>
    <rect id="Rectangle_306" data-name="Rectangle 306" width="38" height="38" transform="translate(1262 4329)" fill="none"/>
  </g>
</svg>
